<svg width="245" height="265" viewBox="0 0 245 265" fill="none" xmlns="http://www.w3.org/2000/svg">
<path d="M122.5 0C99.6763 0 79.5605 15.1244 73.1132 37.1C66.279 33.9976 59.0579 32.3171 51.5789 32.3171C37.8994 32.3171 24.7801 37.7648 15.1071 47.4618C5.43419 57.1588 0 70.3108 0 84.0244C0.0305515 95.4754 3.84256 106.594 10.8408 115.644C17.8391 124.695 27.6298 131.167 38.6842 134.051V226.22H206.316V134.051C229.011 128.105 245 107.551 245 84.0244C245 70.3108 239.566 57.1588 229.893 47.4618C220.22 37.7648 207.101 32.3171 193.421 32.3171C185.942 32.3171 178.721 33.9976 171.887 37.1C165.439 15.1244 145.324 0 122.5 0ZM116.053 116.341H128.947V206.829H116.053V116.341ZM77.3684 142.195H90.2632V206.829H77.3684V142.195ZM154.737 142.195H167.632V206.829H154.737V142.195ZM38.6842 239.146V252.073C38.6842 255.502 40.0428 258.79 42.461 261.214C44.8792 263.638 48.1591 265 51.5789 265H193.421C196.841 265 200.121 263.638 202.539 261.214C204.957 258.79 206.316 255.502 206.316 252.073V239.146H38.6842Z" fill="#494192"/>
</svg>
