<svg width="38" height="34" viewBox="0 0 38 34" fill="none" xmlns="http://www.w3.org/2000/svg">
<g clip-path="url(#clip0_4_4)">
<path d="M4.75 0C3.49022 0 2.28204 0.447767 1.39124 1.2448C0.500445 2.04183 0 3.12283 0 4.25L0 29.75C0 30.8772 0.500445 31.9582 1.39124 32.7552C2.28204 33.5522 3.49022 34 4.75 34H33.25C34.5098 34 35.718 33.5522 36.6088 32.7552C37.4996 31.9582 38 30.8772 38 29.75V4.25C38 3.12283 37.4996 2.04183 36.6088 1.2448C35.718 0.447767 34.5098 0 33.25 0L4.75 0ZM5.9375 10.625H32.0625C32.3774 10.625 32.6795 10.7369 32.9022 10.9362C33.1249 11.1355 33.25 11.4057 33.25 11.6875C33.25 11.9693 33.1249 12.2395 32.9022 12.4388C32.6795 12.6381 32.3774 12.75 32.0625 12.75H5.9375C5.62256 12.75 5.32051 12.6381 5.09781 12.4388C4.87511 12.2395 4.75 11.9693 4.75 11.6875C4.75 11.4057 4.87511 11.1355 5.09781 10.9362C5.32051 10.7369 5.62256 10.625 5.9375 10.625ZM9.5 18.0625C9.5 17.7807 9.62511 17.5105 9.84781 17.3112C10.0705 17.1119 10.3726 17 10.6875 17H27.3125C27.6274 17 27.9295 17.1119 28.1522 17.3112C28.3749 17.5105 28.5 17.7807 28.5 18.0625C28.5 18.3443 28.3749 18.6145 28.1522 18.8138C27.9295 19.0131 27.6274 19.125 27.3125 19.125H10.6875C10.3726 19.125 10.0705 19.0131 9.84781 18.8138C9.62511 18.6145 9.5 18.3443 9.5 18.0625ZM14.25 24.4375C14.25 24.1557 14.3751 23.8855 14.5978 23.6862C14.8205 23.4869 15.1226 23.375 15.4375 23.375H22.5625C22.8774 23.375 23.1795 23.4869 23.4022 23.6862C23.6249 23.8855 23.75 24.1557 23.75 24.4375C23.75 24.7193 23.6249 24.9895 23.4022 25.1888C23.1795 25.3881 22.8774 25.5 22.5625 25.5H15.4375C15.1226 25.5 14.8205 25.3881 14.5978 25.1888C14.3751 24.9895 14.25 24.7193 14.25 24.4375Z" fill="#F35B04"/>
</g>
<defs>
<clipPath id="clip0_4_4">
<rect width="38" height="34" rx="17" fill="white"/>
</clipPath>
</defs>
</svg>
