<svg width="28" height="28" viewBox="0 0 28 28" fill="none" xmlns="http://www.w3.org/2000/svg">
<path d="M2.76172 7.75468C3.12824 6.90603 3.65672 6.13699 4.31758 5.49061C4.97894 4.84231 5.7587 4.32711 6.61446 3.97304C7.50182 3.60442 8.45357 3.41575 9.41445 3.41796C10.7625 3.41796 12.0777 3.7871 13.2207 4.48436C13.4941 4.65116 13.7539 4.83436 14 5.03397C14.2461 4.83436 14.5059 4.65116 14.7793 4.48436C15.9223 3.7871 17.2375 3.41796 18.5855 3.41796C19.5563 3.41796 20.4969 3.6039 21.3855 3.97304C22.2441 4.3285 23.018 4.83983 23.6824 5.49061C24.3441 6.13626 24.8728 6.90548 25.2383 7.75468C25.6184 8.63788 25.8125 9.57577 25.8125 10.541C25.8125 11.4516 25.6266 12.4004 25.2574 13.3656C24.9484 14.1723 24.5055 15.009 23.9395 15.8539C23.0426 17.191 21.8094 18.5855 20.2781 19.9992C17.7406 22.3426 15.2277 23.9613 15.1211 24.0269L14.473 24.4426C14.1859 24.6258 13.8168 24.6258 13.5297 24.4426L12.8816 24.0269C12.775 23.9586 10.2648 22.3426 7.72461 19.9992C6.19336 18.5855 4.96016 17.191 4.06328 15.8539C3.49727 15.009 3.05156 14.1723 2.74531 13.3656C2.37617 12.4004 2.19024 11.4516 2.19024 10.541C2.1875 9.57577 2.38164 8.63788 2.76172 7.75468V7.75468Z" fill="#F35B04"/>
</svg>
