<svg width="14" height="12" viewBox="0 0 14 12" fill="none" xmlns="http://www.w3.org/2000/svg">
<path d="M7.6 5.99972H13M13 5.99972L11.0002 3.73379M13 5.99972L11.0002 8.26565M8.2 3.16731V2.13291C8.19999 1.9762 8.16555 1.82121 8.09886 1.67771C8.03217 1.53421 7.93467 1.40534 7.81253 1.29923C7.69039 1.19313 7.54627 1.1121 7.38927 1.06127C7.23227 1.01043 7.0658 0.990903 6.9004 1.00391L2.1004 1.38119C1.80043 1.40477 1.52081 1.53394 1.31698 1.74306C1.11315 1.95218 1.00001 2.22599 1 2.51019V9.48925C1.00001 9.77344 1.11315 10.0472 1.31698 10.2564C1.52081 10.4655 1.80043 10.5947 2.1004 10.6182L6.9004 10.9961C7.06585 11.0091 7.23237 10.9896 7.38941 10.9387C7.54645 10.8878 7.6906 10.8067 7.81275 10.7006C7.9349 10.5944 8.03238 10.4655 8.09904 10.3219C8.1657 10.1783 8.20008 10.0233 8.2 9.86653V8.83213" stroke="#FFF1C9" stroke-linecap="round" stroke-linejoin="round"/>
</svg>
